Coordinates	
version=1	
nRows=444	
nColumns=2	
inDegrees=yes	
	
"Units are S.I. units (second, meters, Newtons, ...)"	
Angles are in degrees.	
	
endheader	
time	transX
0	-1
0.05	-1.435101277
0.1	-1.422379563
0.15	-1.337652437
0.2	-1.252116439
0.25	-1.143765215
0.3	-1.033409398
0.35	-0.930405328
0.4	-0.825717832
0.45	-0.716388821
0.5	-0.605508037
0.55	-0.493904699
0.6	-0.380923421
0.65	-0.266508576
0.7	-0.150869884
0.75	-0.034336
0.8	0.083270476
0.85	0.203052341
0.9	0.323787056
0.95	0.441603591
1	0.56017803
1.05	0.68891164
1.1	0.818434952
1.15	0.988000173
1.2	1.158895647
1.25	1.365473084
1.3	1.573834276
1.35	1.782154135
1.4	1.992066936
1.45	2.223337463
1.5	2.456336091
1.55	2.742278791
1.6	3.030620107
1.65	3.319321618
1.7	3.610189146
1.75	3.823636036
1.8	4.037670806
1.85	4.254157795
1.9	4.471025484
1.95	4.853685253
2	5.239350966
2.05	5.540615928
2.1	5.84330212
2.15	6.046554006
2.2	6.249223861
2.25	6.512955354
2.3	6.776929345
2.35	7.096067692
2.4	7.416291717
2.45	7.694725512
2.5	7.973386968
2.55	8.207919985
2.6	8.441737885
2.65	8.70995803
2.7	8.977905493
2.75	9.233638863
2.8	9.488817605
2.85	9.730101279
2.9	9.970486426
2.95	10.24436321
3	10.51781306
3.05	10.74797866
3.1	10.9769223
3.15	11.20156049
3.2	11.42480686
3.25	11.67269428
3.3	11.91956265
3.35	12.21573881
3.4	12.51168049
3.45	12.79728861
3.5	13.08241119
3.55	13.29231725
3.6	13.50035275
3.65	13.71745512
3.7	13.93274839
3.75	14.22925169
3.8	14.52530486
3.85	14.76378762
3.9	15.00083217
3.95	15.21391558
4	15.42505125
4.05	15.70249604
4.1	15.97907213
4.15	16.25177023
4.2	16.52352147
4.25	16.72169306
4.3	16.91759882
4.35	17.23174548
4.4	17.54553546
4.45	17.81762433
4.5	18.08866117
4.55	18.2985634
4.6	18.5062614
4.65	18.7803336
4.7	19.05325113
4.75	19.34990806
4.8	19.64580942
4.85	19.82622336
4.9	20.00387252
4.95	20.25957665
5	20.5137411
5.05	20.76027402
5.1	21.00518887
5.15	21.17071213
5.2	21.33324674
5.25	21.55991716
5.3	21.78465512
5.35	22.05308501
5.4	22.32037835
5.45	22.47796735
5.5	22.6325646
5.55	23.02790298
5.6	23.42421426
5.65	23.64343669
5.7	23.86070368
5.75	23.97624536
5.8	24.08791294
5.85	24.22977977
5.9	24.3683121
5.95	24.5041481
6	24.63675524
6.05	24.81542402
6.1	24.99173698
6.15	25.14135498
6.2	25.28826197
6.25	25.31453509
6.3	25.33612242
6.35	25.4921146
6.4	25.64576146
6.45	25.82988557
6.5	26.0123774
6.55	26.08489486
6.6	26.15396717
6.65	26.30179524
6.7	26.4475037
6.75	26.54645319
6.8	26.64262952
6.85	26.72494531
6.9	26.80429239
6.95	26.9154233
7	27.02421051
7.05	27.14871411
7.1	27.27123441
7.15	27.38574389
7.2	27.49818663
7.25	27.59813542
7.3	27.69584028
7.35	27.8087119
7.4	27.91963587
7.45	28.20934794
7.5	28.50014517
7.55	28.68509986
7.6	28.86935828
7.65	28.96061362
7.7	29.04941819
7.75	29.2073783
7.8	29.3640052
7.85	29.54547032
7.9	29.72607908
7.95	29.94466105
8	30.162988
8.05	30.31846774
8.1	30.47257557
8.15	30.5600765
8.2	30.64500237
8.25	30.76664081
8.3	30.88632532
8.35	31.05717666
8.4	31.22700778
8.45	31.3885059
8.5	31.54886257
8.55	31.71404553
8.6	31.87812465
8.65	31.92143761
8.7	31.9616037
8.75	32.0462097
8.8	32.12840974
8.85	32.34844108
8.9	32.56850026
8.95	32.74889125
9	32.92868519
9.05	32.92749278
9.1	32.92256417
9.15	32.93261637
9.2	32.9391669
9.25	33.09961689
9.3	33.25933426
9.35	33.38224556
9.4	33.50394186
9.45	33.57841667
9.5	33.65083511
9.55	33.72978406
9.6	33.80679375
9.65	33.83213732
9.7	33.85474528
9.75	33.87957345
9.8	33.90177108
9.85	34.129951
9.9	34.35906082
9.95	34.44297856
10	34.52546678
10.05	34.44720223
10.1	34.36467499
10.15	34.6319018
10.2	34.9007743
10.25	35.25539705
10.3	35.61326943
10.35	35.21527551
10.4	34.80764647
10.45	35.06911171
10.5	35.33193063
10.55	35.3499031
10.6	35.36573597
10.65	35.33517341
10.7	35.30149871
10.75	35.53300315
10.8	35.76594178
10.85	35.87042158
10.9	35.97429748
10.95	35.99317738
11	36.00984543
11.05	35.99485043
11.1	35.97711843
11.15	35.98262192
11.2	35.98589187
11.25	36.00659597
11.3	36.02549924
11.35	36.07477813
11.4	36.12286328
11.45	36.15407139
11.5	36.18387019
11.55	36.10435408
11.6	36.02163686
11.65	35.98698461
11.7	35.95001262
11.75	35.95698343
11.8	35.96256355
11.85	35.9163045
11.9	35.86790507
11.95	35.78741608
12	35.70432069
12.05	35.67856823
12.1	35.65130301
12.15	35.64366692
12.2	35.63499894
12.25	35.53710786
12.3	35.43676739
12.35	35.43379807
12.4	35.43006931
12.45	35.27082558
12.5	35.10837668
12.55	34.91041677
12.6	34.70872206
12.65	34.61566903
12.7	34.52095152
12.75	34.26695343
12.8	34.00889393
12.85	33.80834868
12.9	33.60485458
12.95	33.35686939
13	33.10551831
13.05	32.85573004
13.1	32.60284929
13.15	32.38008343
13.2	32.15501413
13.25	31.89529172
13.3	31.63294854
13.35	31.335248
13.4	31.03455549
13.45	30.7609664
13.5	30.48509522
13.55	30.17450973
13.6	29.86134278
13.65	29.5311098
13.7	29.19825067
13.75	28.87198403
13.8	28.5434746
13.85	28.20383363
13.9	27.86204135
13.95	27.527786
14	27.19176127
14.05	26.899491
14.1	26.60643403
14.15	26.18417575
14.2	25.75919527
14.25	25.42538852
14.3	25.09056742
14.35	24.77180924
14.4	24.4526154
14.45	24.01053737
14.5	23.56615274
14.55	23.13456158
14.6	22.70105927
14.65	22.2997171
14.7	21.89731911
14.75	21.5247051
14.8	21.15180802
14.85	20.81729989
14.9	20.48336155
14.95	20.03294938
15	19.58132003
15.05	19.07602586
15.1	18.56875177
15.15	18.22307386
15.2	17.8783918
15.25	17.51853871
15.3	17.15971572
15.35	16.68838419
15.4	16.21628473
15.45	15.74159497
15.5	15.26621779
15.55	14.86209786
15.6	14.45873397
15.65	14.11186434
15.7	13.76691688
15.75	13.39236047
15.8	13.01934173
15.85	12.53741153
15.9	12.05524644
15.95	11.63961344
16	11.22496226
16.05	10.86857856
16.1	10.51436488
16.15	10.15235344
16.2	9.792489075
16.25	9.381114696
16.3	8.971061163
16.35	8.555437974
16.4	8.141097994
16.45	7.804969808
16.5	7.471545657
16.55	7.058559826
16.6	6.647047903
16.65	6.28205874
16.7	5.919335953
16.75	5.609358375
16.8	5.302627463
16.85	4.959879495
16.9	4.619801845
16.95	4.268058324
17	3.918759186
17.05	3.610831008
17.1	3.306055055
17.15	2.921454496
17.2	2.538696132
17.25	2.208852937
17.3	1.881724828
17.35	1.599775639
17.4	1.321369266
17.45	1.020631773
17.5	0.723057799
17.55	0.388947829
17.6	0.057336782
17.65	-0.302202334
17.7	-0.659722661
17.75	-0.94467066
17.8	-1.22635169
17.85	-1.451439205
17.9	-1.672266485
17.95	-1.914273731
18	-2.152431619
18.05	-2.398201779
18.1	-2.640367331
18.15	-2.831616725
18.2	-3.018495669
18.25	-3.171549678
18.3	-3.319752305
18.35	-3.464150909
18.4	-3.603784576
18.45	-3.739543206
18.5	-3.870655799
18.55	-3.996601493
18.6	-4.117993422
18.65	-4.235041663
18.7	-4.347637916
18.75	-4.455944219
18.8	-4.559898733
18.85	-4.659397051
18.9	-4.754637781
18.95	-4.844868946
19	-4.930924558
19.05	-5.018457826
19.1	-5.102003394
19.15	-5.153693526
19.2	-5.201025061
19.25	-5.220861567
19.3	-5.236039656
19.35	-5.256750127
19.4	-5.273090969
19.45	-5.279514521
19.5	-5.281621036
19.55	-5.23872978
19.6	-5.190973305
19.65	-5.175867972
19.7	-5.156657031
19.75	-5.118736347
19.8	-5.076647859
19.85	-5.003571808
19.9	-4.926012509
19.95	-4.845554768
20	-4.760787255
20.05	-4.634302345
20.1	-4.503060901
20.15	-4.323100078
20.2	-4.137820784
20.25	-4.029487354
20.3	-3.91741886
20.35	-3.74898588
20.4	-3.576200837
20.45	-3.286026596
20.5	-2.98976963
20.55	-2.732984092
20.6	-2.47108916
20.65	-2.342158954
20.7	-2.210766051
20.75	-2.032367191
20.8	-1.851042845
20.85	-1.567596327
20.9	-1.279675576
20.95	-1.095624171
21	-0.909061787
21.05	-0.67322415
21.1	-0.434370452
21.15	-0.113006586
21.2	0.21256309
21.25	0.371417898
21.3	0.531440392
21.35	0.706402297
21.4	0.882480443
21.45	1.185857329
21.5	1.492387844
21.55	1.732602042
21.6	1.974729394
21.65	2.152437653
21.7	2.330718804
21.75	2.531927126
21.8	2.733937178
21.85	2.930316304
21.9	3.127329664
21.95	3.325739119
22	3.524708113
22.05	3.72920064
22.1	3.934257078
22.15	4.107386729
